<svg width="489" height="253" viewBox="0 0 489 253" fill="none" xmlns="http://www.w3.org/2000/svg">
<path d="M89.7228 68.9207C91.9058 70.0113 94.0888 70.6656 96.2719 71.7561C100.201 73.719 104.131 75.6819 107.842 77.863C113.518 80.9164 119.194 84.4061 124.651 87.6776C124.87 87.6776 124.87 87.8957 125.088 87.8957L115.701 87.2414L79.6808 84.4061C79.2442 84.4061 78.5893 84.6242 78.371 84.8423C70.0754 91.8216 61.5616 98.8009 53.2661 105.78C49.5549 108.834 46.062 111.887 42.3509 114.941C42.3509 110.578 42.5692 106.435 42.7875 102.072C42.7875 100.764 43.2241 99.2371 43.2241 97.9285C43.2241 95.5294 44.7522 94.0026 46.4987 92.4759C52.6112 88.1138 59.1603 83.9699 65.7094 80.2621C72.0402 76.3363 78.5893 72.8466 85.3567 69.7932C86.4482 69.3569 87.3214 68.9207 88.4129 68.7026L89.7228 68.9207ZM53.0478 154.199C50.4281 152.672 47.8085 150.928 45.4071 148.965C43.879 147.874 43.6607 146.347 43.2241 144.821C42.7875 142.858 42.5692 140.895 42.5692 139.15C42.5692 137.187 42.3509 135.224 42.3509 133.043C42.3509 128.027 42.1326 122.792 42.1326 117.776H42.7875L57.6321 119.085L89.5045 121.484C90.1594 121.484 90.596 121.266 91.0326 121.047C100.638 113.414 110.025 105.344 119.412 97.4923L128.144 90.0768C129.454 91.1673 130.764 92.0397 132.074 93.1302C133.602 94.2207 134.475 95.9656 134.693 97.7104C135.13 101.636 135.348 105.562 135.567 109.488C136.003 117.122 135.785 124.755 135.785 132.171C135.567 136.097 135.567 140.022 134.912 143.948C134.693 146.129 133.383 148.092 131.637 149.401C125.088 153.981 118.539 158.343 111.553 162.269C107.187 164.668 103.039 167.067 98.6732 169.248C96.4902 170.339 94.3071 171.211 92.1241 172.302C89.9411 173.392 87.758 173.174 85.575 172.084C81.6455 170.339 78.1527 168.376 74.4415 166.413C71.167 164.668 67.8924 162.705 64.3995 160.96C64.1812 160.742 63.9629 160.742 63.7446 160.524C63.308 158.779 62.6531 156.816 61.9982 155.072C61.7799 154.635 61.7799 153.981 61.5616 153.327C61.125 149.183 59.5969 145.257 57.4138 141.767C57.1955 141.331 56.9772 140.895 56.5406 141.549C55.4491 143.076 53.4844 143.73 51.5196 143.294C51.083 143.076 50.8647 143.512 50.8647 143.948C51.083 145.257 51.083 146.347 51.3013 147.656C51.9562 150.055 52.8295 152.018 53.0478 154.199ZM118.102 102.727L117.229 103.599C109.152 110.36 101.075 116.903 92.9973 123.665C92.3424 124.319 91.4692 124.537 90.3777 124.537C89.0679 124.319 87.758 124.319 86.2299 124.319L67.8924 123.01C64.8362 122.792 61.5616 122.574 58.5054 122.356C57.6321 122.356 57.4138 122.574 57.6321 123.228C57.8504 123.447 57.8504 123.883 57.8504 124.101C59.3786 128.681 60.6884 133.479 62.2165 138.06C63.7446 142.64 62.6531 141.767 68.1107 143.948H68.329C75.9696 146.347 84.2652 146.784 92.1241 145.475C101.511 143.73 110.243 139.15 117.011 132.171C119.63 129.772 121.813 126.936 123.56 124.101C123.996 123.228 124.215 122.356 123.778 121.266C122.032 115.595 120.285 109.924 118.321 104.035C118.539 103.599 118.321 103.163 118.102 102.727ZM50.2098 138.932C50.2098 140.241 50.8647 141.549 52.1745 141.985C53.7027 142.64 55.4491 141.767 56.104 140.241V140.022C56.7589 138.496 56.104 136.533 54.3576 135.878C54.1393 135.878 54.1393 135.66 53.921 135.66C53.2661 135.442 52.8295 135.006 52.6112 134.352L48.6817 121.92C48.2451 120.829 47.8085 120.393 46.9353 120.829C46.062 121.266 46.717 121.92 46.9353 122.356L50.8647 134.788C51.083 135.442 51.083 136.097 50.6464 136.533C50.4281 137.623 50.2098 138.278 50.2098 138.932Z" fill="#5DB67D"/>
<path d="M128.362 90.0766L119.63 97.4921C110.243 105.344 100.856 113.196 91.2509 121.047C90.8143 121.484 90.1594 121.702 89.7228 121.484L57.8504 119.084C52.8295 118.648 47.8085 118.212 43.0058 117.776H42.3509C41.4777 117.558 40.6045 117.776 39.7312 117.34L42.3509 114.94L53.2661 105.998C61.5616 99.0188 70.0754 92.0395 78.371 85.0602C78.8076 84.624 79.2442 84.624 79.6808 84.624C91.6875 85.4964 103.694 86.3688 115.701 87.4594L125.088 88.1137L130.109 88.5499L128.362 90.0766ZM53.0478 154.199C52.6112 152.018 51.9562 149.837 51.7379 147.656C51.5196 146.347 51.5196 145.257 51.3013 143.948C51.3013 143.512 51.3013 143.294 51.9562 143.294C53.7027 143.73 55.6674 143.076 56.9772 141.549C57.4138 140.895 57.6321 141.549 57.8504 141.767C60.2518 145.257 61.5616 149.183 61.9982 153.327C61.9982 153.981 62.2165 154.417 62.4348 155.071C63.0897 156.816 63.7446 158.779 64.1812 160.524C64.3995 161.396 64.3995 162.269 64.3995 163.141C64.3995 163.359 64.3995 163.577 64.1812 164.014C63.9629 164.232 63.9629 164.232 63.7446 164.232C63.5263 164.232 63.5263 164.014 63.5263 163.796V163.359C63.5263 162.705 63.0897 162.705 62.6531 162.705C61.9982 162.705 62.2165 163.141 62.4348 163.577C62.4348 163.796 62.6531 164.232 62.4348 164.45C62.2165 164.668 61.7799 164.45 61.5616 164.232C60.6884 164.014 59.5969 164.014 59.1603 162.923C59.1603 163.359 59.3786 163.796 59.3786 164.232C59.3786 164.45 59.3786 164.886 59.1603 164.886C58.942 164.886 58.5054 164.886 58.2871 164.668C57.8504 164.232 57.4138 163.796 57.1955 163.359C55.4491 160.524 54.1393 157.471 53.0478 154.199Z" fill="white"/>
<path d="M118.102 102.727C118.321 102.945 118.539 103.381 118.757 103.818C120.504 109.488 122.468 115.159 124.215 121.048C124.433 121.92 124.433 123.011 123.778 123.883C122.032 126.937 119.849 129.554 117.229 131.953C110.462 138.932 101.948 143.512 92.3424 145.257C84.4835 146.784 76.1879 146.13 68.5473 143.731H68.329C63.0897 141.549 64.1812 142.422 62.4348 137.842C60.9067 133.043 59.3786 128.463 58.0687 123.883C57.8504 123.665 57.8504 123.229 57.8504 123.011C57.6321 122.356 57.8504 121.92 58.7237 122.138C61.7799 122.356 65.0545 122.574 68.1107 122.793L86.4482 124.101C87.758 124.101 89.2862 124.319 90.596 124.319C91.4692 124.537 92.3424 124.101 92.9973 123.447C101.075 116.686 109.152 110.143 117.229 103.381L118.102 102.727ZM50.2098 138.932C50.2098 138.278 50.4281 137.624 50.8647 136.969C51.3013 136.533 51.3013 135.879 51.083 135.224L47.1536 122.793C46.9353 122.356 46.2804 121.702 47.1536 121.266C48.0268 120.83 48.4634 121.266 48.9 122.356L52.8295 134.788C53.0478 135.443 53.4844 135.879 54.1393 136.097C55.8857 136.533 56.7589 138.278 56.3223 139.805C56.3223 140.023 56.3223 140.023 56.104 140.241C55.6674 141.768 53.921 142.64 52.3929 141.986H52.1745C50.8647 141.549 50.2098 140.459 50.2098 138.932Z" fill="white"/>
<path d="M449.269 96.1828C449.05 96.4009 448.832 96.8371 448.396 97.0552L413.685 148.091C413.467 148.746 412.812 148.964 411.939 148.964H402.988C403.207 148.528 403.425 148.31 403.643 147.873C408.446 140.894 413.03 133.915 417.833 127.153C418.27 126.717 418.27 126.063 418.051 125.409C414.995 115.812 411.939 106.216 409.101 96.619C408.883 96.1828 408.883 95.7466 408.664 95.3104H418.051C418.925 95.3104 419.143 95.5285 419.361 96.1828C421.108 102.508 423.072 108.833 425.037 115.158L425.255 115.812C425.474 115.376 425.692 115.158 425.91 114.94C430.058 108.615 434.206 102.29 438.572 95.9647C438.79 95.5285 439.445 95.0923 440.1 95.0923H449.269V96.1828Z" fill="#5DB67D"/>
<path d="M328.329 147.874H318.723V142.203C318.505 142.203 318.287 142.421 318.287 142.421C308.681 152.454 293.4 150.273 284.886 142.421C270.26 129.335 274.189 104.253 294.273 97.4918C303.005 94.4384 311.301 96.1832 318.068 102.726L318.723 103.163V73.7185H328.329V147.874ZM318.723 122.792C318.723 121.265 318.723 119.738 318.505 118.43C316.54 110.142 307.59 104.689 299.076 106.434C290.125 108.397 284.231 117.121 286.196 126.281V126.5C288.161 135.442 296.893 141.112 305.843 139.15C309.773 138.277 313.047 136.096 315.449 133.043C317.85 129.989 319.16 126.281 318.723 122.792ZM380.721 107.088L350.377 136.969C351.469 138.059 352.997 138.713 354.525 138.931C358.454 139.586 362.384 139.586 366.095 137.841C368.715 136.532 371.116 134.788 372.862 132.388C373.081 131.734 373.954 131.734 374.391 131.952C377.229 133.043 380.066 134.133 382.904 135.006C376.574 145.256 367.187 151.145 353.87 148.746C343.61 147.001 333.786 137.623 332.695 125.191C331.603 113.631 338.371 102.29 349.286 97.928C359.546 94.2203 372.208 95.9651 380.721 107.088ZM366.532 107.525C362.821 104.471 352.56 106.434 347.758 111.014C342.955 115.594 340.99 126.063 343.828 129.771L366.532 107.525ZM160.671 123.664C161.108 125.409 161.326 127.154 161.763 128.899C163.073 134.133 166.347 137.623 171.587 138.931C179.009 140.676 186.213 136.096 187.959 128.681C189.051 124.1 187.523 119.302 184.248 116.031C181.41 113.195 178.136 111.014 174.425 109.706C170.058 108.179 166.129 105.78 162.636 102.726C157.397 97.7099 155.869 91.3849 158.27 84.6237C160.671 77.8625 165.474 73.9366 172.678 73.0642C180.974 72.1918 187.741 76.3358 190.797 84.4056C191.016 85.278 191.452 85.9323 191.671 87.0229L182.938 90.5125C182.283 89.2039 181.847 88.1134 181.41 87.0229C180.1 84.1875 177.044 82.4427 173.988 82.8789C170.932 82.8789 168.312 84.8418 167.221 87.8953C165.911 90.7306 166.784 94.2203 169.185 96.4013C171.368 98.5823 173.988 100.109 177.044 101.2C183.812 103.599 189.706 107.306 193.854 113.195C201.058 123.664 198.438 138.059 187.959 145.256C185.121 147.219 182.065 148.31 179.009 148.964C166.129 151.145 154.996 143.512 152.158 130.425C151.503 127.59 151.503 127.59 154.122 126.718L160.671 123.664ZM229.437 100.327H239.042V128.463C238.824 133.261 242.099 137.623 246.901 138.713C252.359 140.022 258.035 136.75 259.563 131.298C259.781 130.425 259.781 129.553 259.781 128.899C259.563 119.956 259.781 110.796 259.781 101.854C259.781 100.545 259.781 100.545 261.091 100.545H268.513C269.168 100.545 269.387 100.763 269.387 101.418C269.387 111.45 269.605 121.483 269.168 131.516C268.95 140.458 261.746 147.874 252.796 148.964C247.12 149.619 241.662 148.964 237.078 145.475C232.057 141.985 229.219 136.096 229.437 130.207C229.219 120.611 229.437 111.014 229.437 101.418V100.327ZM206.515 109.924H198.001V100.327H206.515V82.4427H216.121V100.327H224.634V109.924H216.121V148.092H206.515V109.924Z" fill="#1B66AE"/>
<path d="M388.58 74.1548H398.186V148.31H388.58V74.1548Z" fill="#5DB67D"/>
<path d="M166.784 162.924C172.678 162.924 176.608 167.068 176.608 173.611C176.608 180.154 172.678 184.298 166.784 184.298C160.89 184.298 156.96 180.154 156.96 173.611C156.96 167.286 160.671 162.924 166.784 162.924ZM166.784 181.899C171.15 181.899 173.77 178.627 173.77 173.611C173.77 168.595 170.932 165.323 166.784 165.323C162.418 165.323 159.798 168.595 159.798 173.611C159.798 178.627 162.418 181.899 166.784 181.899ZM179.446 173.611C179.446 171.212 181.41 169.685 184.467 169.685C185.776 169.685 187.304 169.903 188.396 170.776C189.051 171.212 189.269 171.648 189.269 172.084C189.269 172.738 188.833 173.393 188.178 173.393C187.959 173.393 187.523 173.175 187.086 172.957C186.213 172.52 185.34 172.084 184.248 172.084C182.72 172.084 181.847 172.738 181.847 173.611C181.847 176.228 189.488 175.356 189.488 180.154C189.488 182.771 187.523 184.298 184.248 184.298C182.72 184.298 181.192 183.862 180.1 182.989C179.446 182.553 179.227 182.117 179.227 181.681C179.227 181.026 179.664 180.372 180.319 180.372C180.537 180.372 180.755 180.59 181.41 180.808C182.284 181.463 183.375 181.681 184.467 181.681C185.995 181.681 187.086 181.026 187.086 179.936C186.868 177.319 179.446 178.409 179.446 173.611ZM204.114 181.681C204.114 182.117 203.896 182.553 203.241 182.989C201.931 183.862 200.403 184.298 198.875 184.298C194.727 184.298 192.107 181.463 192.107 177.101C192.107 172.738 194.509 169.903 198.438 169.903C202.149 169.903 204.332 172.52 204.332 176.01C204.332 177.755 203.677 177.755 202.586 177.755H194.509C194.727 180.372 196.037 181.899 198.875 181.899C199.966 181.899 200.839 181.681 201.713 181.026C201.931 180.808 202.367 180.59 202.804 180.59C203.459 180.59 204.114 181.026 204.114 181.681ZM194.727 175.792H201.713C201.713 173.393 200.403 171.866 198.22 171.866C196.255 171.866 194.945 173.175 194.727 175.792ZM208.043 172.302C207.607 172.302 206.952 172.084 206.952 171.43V171.212C206.952 170.776 207.17 170.121 207.825 170.121H216.557C217.43 170.121 217.649 170.557 217.649 171.212C217.649 171.866 217.43 172.52 216.775 172.957L210.008 181.899H216.994C217.43 181.899 218.085 182.117 218.085 182.771V182.989C218.085 183.426 217.867 184.08 217.212 184.08H208.043C207.17 184.08 206.952 183.862 206.952 182.989C206.952 182.117 207.17 182.117 207.825 181.245L214.592 172.302H208.043ZM237.296 170.994C237.733 170.121 237.951 169.685 238.824 169.685C239.697 169.685 240.134 169.903 240.134 170.557C240.134 170.776 240.134 171.212 239.916 171.43L235.113 182.553C234.676 183.426 234.24 183.862 233.367 183.862C232.275 183.862 231.838 183.426 231.62 182.553L227.036 171.43C226.817 171.212 226.817 170.776 226.817 170.557C226.817 170.121 227.036 169.685 228.127 169.685C229 169.685 229.437 169.903 229.655 170.994L233.585 181.026L237.296 170.994ZM248.866 169.685C253.014 169.685 255.852 172.52 255.852 176.882C255.852 181.245 253.232 184.298 248.866 184.298C244.5 184.298 242.099 181.463 242.099 177.101C242.099 172.738 244.718 169.685 248.866 169.685ZM248.866 182.117C251.486 182.117 253.014 180.154 253.014 177.101C253.014 174.047 251.486 171.866 248.866 171.866C246.246 171.866 244.718 173.829 244.718 176.882C244.718 180.154 246.465 182.117 248.866 182.117ZM267.858 182.553C267.858 182.989 267.64 183.426 267.204 183.426C266.33 183.862 265.457 184.08 264.366 184.08C262.838 184.298 261.528 183.426 260.654 182.117C260.218 181.026 260 179.718 260 178.409V172.302H258.253C257.817 172.302 257.162 172.084 257.162 171.43V171.212C257.162 170.776 257.38 170.121 258.035 170.121H260V166.632C260 165.977 260.436 165.541 261.309 165.541C262.183 165.541 262.619 165.977 262.619 166.632V170.121H266.112C266.549 170.121 267.204 170.339 267.204 170.994V171.212C267.204 171.648 266.985 172.302 266.33 172.302H262.619V178.409C262.619 179.282 262.619 180.154 262.838 180.808C263.056 181.463 263.711 181.681 264.584 181.681C265.021 181.681 265.457 181.681 265.894 181.463C266.112 181.245 266.33 181.245 266.549 181.245C267.64 181.245 267.858 182.117 267.858 182.553ZM273.753 182.989C273.753 183.644 273.316 184.08 272.443 184.08C271.57 184.08 271.133 183.644 271.133 182.989V170.994C271.133 170.339 271.57 169.903 272.443 169.903C273.316 169.903 273.753 170.339 273.753 170.994V172.52C274.408 170.776 276.154 169.685 278.119 169.685C278.992 169.685 279.429 170.121 279.429 170.994C279.429 171.866 278.992 172.302 278.119 172.302C276.154 172.302 274.844 173.175 274.189 174.701L273.753 182.989ZM292.308 181.681C292.308 182.117 292.09 182.553 291.435 182.989C290.125 183.862 288.597 184.298 287.069 184.298C282.921 184.298 280.302 181.463 280.302 177.101C280.302 172.738 282.703 169.903 286.633 169.903C290.344 169.903 292.527 172.52 292.527 176.01C292.527 177.755 291.872 177.755 290.78 177.755H282.703C282.921 180.372 284.231 181.899 287.069 181.899C288.161 181.899 289.034 181.681 289.907 181.026C290.125 180.808 290.562 180.59 290.999 180.59C291.654 180.59 292.308 181.026 292.308 181.681ZM282.921 175.792H289.907C289.907 173.393 288.597 171.866 286.414 171.866C284.45 171.866 283.14 173.175 282.921 175.792ZM307.371 171.866C306.28 171.866 305.407 172.084 304.534 172.738C304.097 172.957 303.66 173.175 303.442 173.175C302.787 173.175 302.35 172.52 302.35 171.866C302.35 171.43 302.569 170.994 303.224 170.776C304.533 169.903 306.062 169.685 307.59 169.685C309.554 169.685 311.083 170.339 311.956 171.43C312.611 172.52 312.829 173.611 312.829 174.92V182.989C312.829 183.862 312.611 184.08 311.519 184.08C310.646 184.08 310.428 183.862 310.428 183.207V182.335C309.336 183.426 307.808 184.08 306.28 184.08C303.442 184.08 301.914 182.553 301.914 180.154C301.914 177.319 304.315 175.792 310.428 175.356V174.92C310.209 172.957 309.336 171.866 307.371 171.866ZM304.534 179.936C304.534 181.026 305.407 181.899 307.153 181.899C308.245 181.899 309.554 181.463 310.428 180.59V176.882C306.28 177.537 304.534 178.191 304.534 179.936ZM326.364 170.994C326.8 170.121 327.019 169.685 327.892 169.685C328.765 169.685 329.202 169.903 329.202 170.557C329.202 170.776 329.202 171.212 328.983 171.43L324.181 182.553C323.744 183.426 323.308 183.862 322.434 183.862C321.561 183.862 320.906 183.426 320.688 182.553L316.104 171.43C315.885 171.212 315.885 170.776 315.885 170.557C315.885 170.121 316.104 169.685 317.195 169.685C318.068 169.685 318.505 169.903 318.723 170.994L322.653 181.026L326.364 170.994ZM342.955 181.681C342.955 182.117 342.737 182.553 342.082 182.989C340.772 183.862 339.244 184.298 337.716 184.298C333.568 184.298 330.948 181.463 330.948 177.101C330.948 172.738 333.35 169.903 337.279 169.903C340.99 169.903 343.173 172.52 343.173 176.01C343.173 177.755 342.518 177.755 341.645 177.755H333.568C333.786 180.372 335.096 181.899 337.934 181.899C339.025 181.899 339.899 181.681 340.772 181.026C340.99 180.808 341.427 180.59 341.863 180.59C342.518 180.59 342.955 181.026 342.955 181.681ZM333.786 175.792H340.772C340.772 173.393 339.462 171.866 337.279 171.866C335.314 171.866 334.004 173.175 333.786 175.792ZM349.504 170.994V172.084C350.596 170.557 352.342 169.685 354.088 169.903C355.617 169.685 357.145 170.557 358.018 171.648C358.673 172.738 358.891 174.047 358.891 175.356V182.989C358.891 183.644 358.454 184.08 357.581 184.08C356.708 184.08 356.271 183.644 356.271 182.989V175.792C356.271 174.92 356.053 174.047 355.617 173.175C354.962 172.302 354.088 171.866 352.997 172.084C351.687 172.084 350.377 172.738 349.504 173.829V182.771C349.504 183.426 349.067 183.862 348.194 183.862C347.321 183.862 346.884 183.426 346.884 182.771V170.776C346.884 170.121 347.321 169.685 348.194 169.685C349.067 169.685 349.504 170.339 349.504 170.994ZM364.567 166.85C363.694 166.85 362.821 165.977 362.821 165.105C362.821 164.232 363.694 163.36 364.567 163.36C365.44 163.36 366.313 164.232 366.313 165.105C366.313 166.195 365.658 166.85 364.567 166.85C364.785 166.85 364.567 166.85 364.567 166.85ZM365.877 182.989C365.877 183.644 365.44 184.08 364.567 184.08C363.694 184.08 363.257 183.644 363.257 182.989V170.994C363.257 170.339 363.694 169.903 364.567 169.903C365.44 169.903 365.877 170.339 365.877 170.994V182.989ZM373.081 182.989C373.081 183.644 372.644 184.08 371.771 184.08C370.898 184.08 370.461 183.644 370.461 182.989V170.994C370.461 170.339 370.898 169.903 371.771 169.903C372.644 169.903 373.081 170.339 373.081 170.994V172.52C373.736 170.776 375.482 169.685 377.447 169.685C378.32 169.685 378.757 170.121 378.757 170.994C378.757 171.866 378.32 172.302 377.447 172.302C375.482 172.302 374.172 173.175 373.517 174.701L373.081 182.989Z" fill="#1B66AE"/>
</svg>
