<svg width="50" height="32" viewBox="0 0 50 32" fill="none" xmlns="http://www.w3.org/2000/svg">
<path d="M4.79901 9.55925C5.4315 9.91159 7.33806 10.958 10.5188 12.698C13.6996 14.438 16.1364 15.7777 17.8291 16.7173C18.0151 16.8203 18.4102 17.0442 19.0146 17.3892C19.6192 17.7346 20.1215 18.0136 20.5212 18.2265C20.9212 18.4392 21.4048 18.6779 21.9724 18.9421C22.5398 19.2061 23.0746 19.4047 23.5769 19.5362C24.0792 19.6687 24.5442 19.7344 24.9719 19.7344H25H25.0281C25.4559 19.7344 25.921 19.6686 26.4234 19.5362C26.9254 19.4047 27.4607 19.2059 28.0277 18.9421C28.5949 18.6776 29.0784 18.4391 29.4784 18.2265C29.8784 18.0136 30.3803 17.7346 30.9851 17.3892C31.5894 17.0439 31.985 16.8203 32.171 16.7173C33.882 15.7777 38.2351 13.3915 45.2289 9.55879C46.5867 8.81023 47.7211 7.90699 48.6324 6.84968C49.5444 5.79284 49.9999 4.68416 49.9999 3.52425C49.9999 2.55497 49.5579 1.72525 48.6742 1.03516C47.7907 0.344926 46.7442 0 45.5355 0H4.46409C3.0319 0 1.92973 0.381725 1.15778 1.14518C0.385926 1.90878 0 2.86325 0 4.0085C0 4.93357 0.511701 5.93603 1.53461 7.01524C2.55743 8.09453 3.64592 8.94262 4.79901 9.55925Z" fill="#FF0C0B"/>
<path d="M47.2094 11.9151C41.1089 15.1745 36.4766 17.7076 33.3148 19.5138C32.2546 20.1303 31.3945 20.6115 30.7339 20.9563C30.0734 21.3014 29.1949 21.6538 28.0972 22.0133C26.9999 22.3735 25.9773 22.553 25.0285 22.553H25H24.972C24.0234 22.553 23.0002 22.3735 21.9029 22.0133C20.8056 21.6538 19.9265 21.3014 19.2662 20.9563C18.606 20.6115 17.7456 20.1303 16.6855 19.5138C14.1742 18.0603 9.55188 15.527 2.81836 11.9151C1.75782 11.3575 0.818467 10.7184 0 9.99902V27.4863C0 28.456 0.436939 29.2852 1.31131 29.9753C2.18548 30.6657 3.23663 31.0107 4.46439 31.0107H45.5359C46.7634 31.0107 47.8144 30.6657 48.6887 29.9753C49.5633 29.285 50 28.4561 50 27.4863V9.99902C49.2 10.7035 48.2702 11.3426 47.2094 11.9151Z" fill="#FF0C0B"/>
</svg>
