<svg width="50" height="40" viewBox="0 0 50 40" fill="none" xmlns="http://www.w3.org/2000/svg">
<path fill-rule="evenodd" clip-rule="evenodd" d="M47.2222 27.4089C43.8534 27.4119 40.5057 26.99 37.3056 26.159C36.8184 26.0357 36.2977 26.0205 35.8003 26.1153C35.303 26.21 34.8484 26.4111 34.4862 26.6963L28.3751 31.5312C20.4933 28.3664 14.0847 23.3115 10.0695 17.0922L16.1806 12.2463C16.5419 11.9604 16.7966 11.6015 16.9166 11.2089C17.0367 10.8164 17.0175 10.4053 16.8612 10.0208C15.8086 7.49466 15.274 4.85203 15.2779 2.19279C15.2791 1.90455 15.2081 1.61897 15.069 1.35248C14.9298 1.08599 14.7252 0.843867 14.467 0.640051C14.2088 0.436236 13.9021 0.274755 13.5645 0.164909C13.2269 0.0550626 12.8651 -0.000978451 12.5 1.29267e-05H2.77773C2.41293 -6.80999e-05 2.05168 0.0565917 1.71462 0.166755C1.37756 0.276919 1.07131 0.438427 0.81335 0.642051C0.555394 0.845676 0.350791 1.08743 0.211233 1.35349C0.0716756 1.61955 -0.000102537 1.90472 1.09937e-07 2.19269C1.09937e-07 22.7822 21.1389 39.4687 47.2222 39.4687C47.5874 39.4697 47.9492 39.4137 48.2867 39.3039C48.6243 39.194 48.931 39.0326 49.1892 38.8288C49.4474 38.625 49.652 38.3828 49.7911 38.1164C49.9303 37.8499 50.0012 37.5643 50 37.2761V29.6016C50.0012 29.3133 49.9303 29.0277 49.7911 28.7613C49.652 28.4948 49.4474 28.2527 49.1892 28.0489C48.931 27.8451 48.6243 27.6836 48.2867 27.5737C47.9492 27.4639 47.5874 27.4079 47.2222 27.4089Z" fill="#FF0C0B"/>
</svg>
