<svg width="120" height="120" viewBox="0 0 120 120" fill="none" xmlns="http://www.w3.org/2000/svg">
<g clip-path="url(#clip0)">
<path d="M60.0001 91.0715C70.3665 91.023 79.8582 85.2523 84.6725 76.0715H35.3276C40.142 85.2523 49.6337 91.023 60.0001 91.0715Z" fill="#FF0C0B"/>
<path d="M68.5715 41.7857C68.5691 39.4198 66.6517 37.5024 64.2857 37.5H57.8572V46.0714H64.2857C66.6517 46.0691 68.5691 44.1517 68.5715 41.7857Z" fill="#FF0C0B"/>
<path d="M40.7143 42.1351L38.6871 48.2144H42.7414L40.7143 42.1351Z" fill="#FF0C0B"/>
<path d="M23.5714 76.0714C21.4184 76.0639 19.2736 75.8058 17.1803 75.3024L10.5642 78.0281L15.871 90.8968L24.9164 87.1614C25.8435 86.7795 26.9114 87.091 27.4879 87.9114C30.1295 91.6846 33.4114 94.966 37.1849 97.6072C38.0086 98.1828 38.3211 99.2539 37.9362 100.182L34.2029 109.208L47.0622 114.539L50.7987 105.508C51.1831 104.578 52.1624 104.041 53.1529 104.217C57.6804 105.023 62.3155 105.017 66.8408 104.198C67.8317 104.021 68.8124 104.556 69.2003 105.485L72.9565 114.531L85.798 109.207L82.0626 100.159C81.6784 99.228 81.9946 98.155 82.8222 97.581C86.597 94.9532 89.8775 91.6787 92.5122 87.9088C93.0883 87.0878 94.1574 86.7772 95.0836 87.1618L104.126 90.9034L109.462 78.0369L104.651 76.0342C104.41 76.0427 104.173 76.0708 103.929 76.0708H89.4192C84.3255 87.7819 72.7708 95.3566 59.9999 95.3566C47.229 95.3566 35.6743 87.7819 30.5806 76.0708L23.5714 76.0714Z" fill="#FF0C0B"/>
<path d="M23.5714 71.7858H103.929C112.805 71.7858 120 64.5903 120 55.7143C120 46.8383 112.805 39.6429 103.929 39.6429H103.714C102.806 39.6429 101.996 39.0701 101.694 38.2136C98.8089 30.032 91.0506 24.5819 82.3755 24.6429C82.1661 24.6429 81.9581 24.644 81.7498 24.6586C80.8097 24.7184 79.9391 24.1627 79.5975 23.2848C75.4767 12.4787 65.1067 5.34342 53.5415 5.35646C41.9764 5.3695 31.6225 12.5281 27.5261 23.3435C27.1842 24.2524 26.273 24.817 25.3069 24.7183C24.7301 24.6641 24.1508 24.6389 23.5714 24.6429C10.5533 24.6429 0 35.1962 0 48.2143C0 61.2325 10.5533 71.7858 23.5714 71.7858ZM75 33.2143H87.8571C89.0406 33.2143 90 34.1737 90 35.3572C90 36.5407 89.0406 37.5 87.8571 37.5H83.5714V58.9286H87.8571C89.0406 58.9286 90 59.888 90 61.0715C90 62.2549 89.0406 63.2143 87.8571 63.2143H75C73.8165 63.2143 72.8571 62.2549 72.8571 61.0715C72.8571 59.888 73.8165 58.9286 75 58.9286H79.2857V37.5H75C73.8165 37.5 72.8571 36.5407 72.8571 35.3572C72.8571 34.1737 73.8165 33.2143 75 33.2143ZM55.7143 33.2143H64.2857C69.0196 33.2143 72.8571 37.0519 72.8571 41.7858C72.8571 46.5196 69.0196 50.3572 64.2857 50.3572H57.8571V61.0715C57.8571 62.2549 56.8978 63.2143 55.7143 63.2143C54.5308 63.2143 53.5714 62.2549 53.5714 61.0715V35.3572C53.5714 34.1737 54.5308 33.2143 55.7143 33.2143ZM34.3956 23.9649C39.1155 9.8062 50.9284 9.64291 51.4286 9.64291C52.612 9.64001 53.5738 10.597 53.5767 11.7805C53.5796 12.964 52.6225 13.9257 51.4391 13.9286C51.0236 13.9348 42.1676 14.2016 38.4615 25.3209C38.2193 26.0472 37.608 26.5891 36.8579 26.7425C36.1078 26.8959 35.3328 26.6374 34.8249 26.0645C34.3171 25.4916 34.1534 24.6912 34.3956 23.9649ZM30.1099 60.3935L38.6814 34.6792C38.6976 34.6301 38.7358 34.5971 38.7553 34.5506C38.9872 34.0388 39.3974 33.629 39.9094 33.3976C39.9557 33.3785 39.9881 33.3408 40.0363 33.3247C40.1161 33.3098 40.1968 33.2998 40.2778 33.2947C40.5645 33.2226 40.8647 33.2226 41.1514 33.2947C41.2322 33.2997 41.3127 33.3097 41.3923 33.3245C41.4405 33.3406 41.4726 33.3781 41.5189 33.3971C42.0307 33.6291 42.4408 34.0389 42.6733 34.5504C42.6928 34.5973 42.7309 34.6303 42.7472 34.679L51.3186 60.3933C51.6931 61.516 51.0865 62.7297 49.9637 63.1042C48.841 63.4786 47.6272 62.872 47.2528 61.7493L44.1696 52.5001H37.2589L34.1758 61.7495C33.8013 62.8722 32.5876 63.4789 31.4649 63.1044C30.3421 62.73 29.7355 61.5162 30.1099 60.3935ZM15.3484 30.7837C16.0407 30.4566 16.8549 30.5237 17.4844 30.9597C18.1138 31.3957 18.4628 32.1344 18.3999 32.8975C18.337 33.6606 17.8718 34.3322 17.1795 34.6593C11.9405 37.1443 8.59284 42.4158 8.57143 48.2143C8.55826 51.6259 9.72989 54.9362 11.8862 57.5799C12.3856 58.1729 12.5257 58.9894 12.2527 59.715C11.9796 60.4405 11.3359 60.9621 10.5695 61.0787C9.80304 61.1953 9.03338 60.8889 8.55686 60.2773C4.84446 55.6818 3.45039 49.635 4.77607 43.878C6.10175 38.1209 10 33.2928 15.3484 30.7837Z" fill="#FF0C0B"/>
</g>
<defs>
<clipPath id="clip0">
<rect width="120" height="120" fill="white"/>
</clipPath>
</defs>
</svg>
