<svg width="120" height="120" viewBox="0 0 120 120" fill="none" xmlns="http://www.w3.org/2000/svg">
<g clip-path="url(#clip0)">
<path d="M102.243 24.4191C100.817 18.7099 97.6296 13.5324 93.1137 9.65416C87.9396 5.21111 81.3389 2.76447 74.5268 2.76447C69.4162 2.76447 64.5209 4.08236 60.2002 6.60025C55.6245 2.41572 49.6249 0.0649414 43.3207 0.0649414C29.7989 0.0649414 18.7472 10.8441 18.3061 24.2602C13.6315 25.5668 9.39891 28.2265 6.16336 31.9364C2.18906 36.4941 0 42.3305 0 48.3706C0 62.1713 11.2275 73.3988 25.0282 73.3988H94.9718C108.772 73.3988 120 62.1713 120 48.3706C120 37.3055 112.661 27.585 102.243 24.4191Z" fill="#FFD80B"/>
<path d="M37.7344 80.4306V87.122H25.2898C23.7551 81.7185 18.7795 77.7477 12.8906 77.7477C5.78273 77.7477 0 83.5304 0 90.6383C0 97.7462 5.78273 103.529 12.8906 103.529C18.78 103.529 23.7558 99.5574 25.2902 94.1532H41.25C43.1906 94.1532 44.7656 92.5806 44.7656 90.6376V80.4306H37.7344Z" fill="#FFD80B"/>
<path d="M63.5156 94.6452V80.4305H56.4844V94.6452C51.0804 96.1796 47.1094 101.155 47.1094 107.045C47.1094 114.152 52.8921 119.935 60 119.935C67.1079 119.935 72.8906 114.152 72.8906 107.045C72.8906 101.155 68.9196 96.1796 63.5156 94.6452Z" fill="#FFD80B"/>
<path d="M107.109 77.7477C101.22 77.7477 96.2449 81.7185 94.7102 87.122H82.2656V80.4306H75.2344V90.6376C75.2344 92.5806 76.8094 94.1532 78.75 94.1532H94.7098C96.2442 99.5574 101.22 103.529 107.109 103.529C114.217 103.529 120 97.7462 120 90.6383C120 83.5304 114.217 77.7477 107.109 77.7477Z" fill="#FFD80B"/>
</g>
<defs>
<clipPath id="clip0">
<rect width="120" height="120" fill="white"/>
</clipPath>
</defs>
</svg>
