<svg width="120" height="122" viewBox="0 0 120 122" fill="none" xmlns="http://www.w3.org/2000/svg">
<path d="M120 28.3594V10.7812C120 4.9657 115.269 0.234375 109.453 0.234375H10.5469C4.73133 0.234375 0 4.9657 0 10.7812V28.3594H120ZM81.0938 14.2969H102.188C104.129 14.2969 105.703 15.8709 105.703 17.8125C105.703 19.7541 104.129 21.3281 102.188 21.3281H81.0938C79.1522 21.3281 77.5781 19.7541 77.5781 17.8125C77.5781 15.8709 79.1522 14.2969 81.0938 14.2969ZM45.9375 14.2969C47.8791 14.2969 49.4531 15.8709 49.4531 17.8125C49.4531 19.7541 47.8791 21.3281 45.9375 21.3281C43.9959 21.3281 42.4219 19.7541 42.4219 17.8125C42.4219 15.8709 43.9959 14.2969 45.9375 14.2969ZM31.875 14.2969C33.8166 14.2969 35.3906 15.8709 35.3906 17.8125C35.3906 19.7541 33.8166 21.3281 31.875 21.3281C29.9334 21.3281 28.3594 19.7541 28.3594 17.8125C28.3594 15.8709 29.9334 14.2969 31.875 14.2969ZM17.8125 14.2969C19.7541 14.2969 21.3281 15.8709 21.3281 17.8125C21.3281 19.7541 19.7541 21.3281 17.8125 21.3281C15.8709 21.3281 14.2969 19.7541 14.2969 17.8125C14.2969 15.8709 15.8709 14.2969 17.8125 14.2969Z" fill="#FF0C0B"/>
<path d="M0 35.3906V109.219C0 115.034 4.73133 119.766 10.5469 119.766H109.453C115.269 119.766 120 115.034 120 109.219V35.3906H0ZM41.1023 85.3798C42.6187 86.5927 42.8644 88.8049 41.6515 90.3211C40.4388 91.837 38.2261 92.0831 36.7102 90.87L19.132 76.8075C17.3745 75.402 17.3733 72.7238 19.132 71.317L36.7102 57.2545C38.2256 56.0416 40.4384 56.2873 41.6515 57.8034C42.8644 59.3196 42.6187 61.5321 41.1023 62.7448L26.9559 74.0625L41.1023 85.3798ZM73.7782 50.838L52.6845 100.057C51.9197 101.841 49.8534 102.668 48.0682 101.903C46.2837 101.138 45.4568 99.0715 46.2218 97.287L67.3156 48.0682C68.0806 46.2837 70.1473 45.457 71.9318 46.2218C73.7163 46.9866 74.5432 49.0533 73.7782 50.838ZM100.868 76.8077L83.2898 90.8702C81.7762 92.0815 79.5633 91.8396 78.3485 90.3213C77.1356 88.8052 77.3812 86.5927 78.8977 85.38L93.0441 74.0625L78.8977 62.7452C77.3812 61.5323 77.1356 59.3201 78.3485 57.8039C79.5612 56.2877 81.7737 56.0419 83.2898 57.255L100.868 71.3175C102.626 72.723 102.627 75.401 100.868 76.8077Z" fill="#FF0C0B"/>
<path d="M120 30.3594V12.7812C120 6.9657 115.269 2.23438 109.453 2.23438H10.5469C4.73133 2.23438 0 6.9657 0 12.7812V30.3594H120ZM81.0938 16.2969H102.188C104.129 16.2969 105.703 17.8709 105.703 19.8125C105.703 21.7541 104.129 23.3281 102.188 23.3281H81.0938C79.1522 23.3281 77.5781 21.7541 77.5781 19.8125C77.5781 17.8709 79.1522 16.2969 81.0938 16.2969ZM45.9375 16.2969C47.8791 16.2969 49.4531 17.8709 49.4531 19.8125C49.4531 21.7541 47.8791 23.3281 45.9375 23.3281C43.9959 23.3281 42.4219 21.7541 42.4219 19.8125C42.4219 17.8709 43.9959 16.2969 45.9375 16.2969ZM31.875 16.2969C33.8166 16.2969 35.3906 17.8709 35.3906 19.8125C35.3906 21.7541 33.8166 23.3281 31.875 23.3281C29.9334 23.3281 28.3594 21.7541 28.3594 19.8125C28.3594 17.8709 29.9334 16.2969 31.875 16.2969ZM17.8125 16.2969C19.7541 16.2969 21.3281 17.8709 21.3281 19.8125C21.3281 21.7541 19.7541 23.3281 17.8125 23.3281C15.8709 23.3281 14.2969 21.7541 14.2969 19.8125C14.2969 17.8709 15.8709 16.2969 17.8125 16.2969Z" fill="#FF0C0B"/>
<path d="M0 37.3906V111.219C0 117.034 4.73133 121.766 10.5469 121.766H109.453C115.269 121.766 120 117.034 120 111.219V37.3906H0ZM41.1023 87.3798C42.6187 88.5927 42.8644 90.8049 41.6515 92.3211C40.4388 93.837 38.2261 94.0831 36.7102 92.87L19.132 78.8075C17.3745 77.402 17.3733 74.7238 19.132 73.317L36.7102 59.2545C38.2256 58.0416 40.4384 58.2873 41.6515 59.8034C42.8644 61.3196 42.6187 63.5321 41.1023 64.7448L26.9559 76.0625L41.1023 87.3798ZM73.7782 52.838L52.6845 102.057C51.9197 103.841 49.8534 104.668 48.0682 103.903C46.2837 103.138 45.4568 101.071 46.2218 99.287L67.3156 50.0682C68.0806 48.2837 70.1473 47.457 71.9318 48.2218C73.7163 48.9866 74.5432 51.0533 73.7782 52.838ZM100.868 78.8077L83.2898 92.8702C81.7762 94.0815 79.5633 93.8396 78.3485 92.3213C77.1356 90.8052 77.3812 88.5927 78.8977 87.38L93.0441 76.0625L78.8977 64.7452C77.3812 63.5323 77.1356 61.3201 78.3485 59.8039C79.5612 58.2877 81.7737 58.0419 83.2898 59.255L100.868 73.3175C102.626 74.723 102.627 77.401 100.868 78.8077Z" fill="#FF0C0B"/>
</svg>
