<svg width="120" height="120" viewBox="0 0 120 120" fill="none" xmlns="http://www.w3.org/2000/svg">
<g clip-path="url(#clip0)">
<path d="M60.0001 22C65.5229 22 70.0001 17.5229 70.0001 12C70.0001 6.47715 65.5229 2 60.0001 2C54.4773 2 50.0001 6.47715 50.0001 12C50.0001 17.5229 54.4773 22 60.0001 22Z" fill="#FFD80B"/>
<path d="M60.0001 22C65.5229 22 70.0001 17.5229 70.0001 12C70.0001 6.47715 65.5229 2 60.0001 2C54.4773 2 50.0001 6.47715 50.0001 12C50.0001 17.5229 54.4773 22 60.0001 22Z" fill="#FFD80B"/>
<path d="M33.12 33.12C30.2603 35.9806 25.9588 36.8367 22.2217 35.2891C18.4846 33.7414 16.0479 30.0949 16.0479 26.05C16.0479 22.0051 18.4846 18.3585 22.2217 16.8109C25.9588 15.2633 30.2603 16.1194 33.12 18.98C35.0021 20.8513 36.0604 23.3959 36.0604 26.05C36.0604 28.7041 35.0021 31.2486 33.12 33.12Z" fill="#FFD80B"/>
<path d="M33.12 33.12C30.2603 35.9806 25.9588 36.8367 22.2217 35.2891C18.4846 33.7414 16.0479 30.0949 16.0479 26.05C16.0479 22.0051 18.4846 18.3585 22.2217 16.8109C25.9588 15.2633 30.2603 16.1194 33.12 18.98C35.0021 20.8513 36.0604 23.3959 36.0604 26.05C36.0604 28.7041 35.0021 31.2486 33.12 33.12Z" fill="#FFD80B"/>
<path d="M10 70C15.5228 70 20 65.5228 20 60C20 54.4771 15.5228 50 10 50C4.47715 50 0 54.4771 0 60C0 65.5228 4.47715 70 10 70Z" fill="#FFD80B"/>
<path d="M10 70C15.5228 70 20 65.5228 20 60C20 54.4771 15.5228 50 10 50C4.47715 50 0 54.4771 0 60C0 65.5228 4.47715 70 10 70Z" fill="#FFD80B"/>
<path d="M33.12 101.02C30.2603 103.881 25.9588 104.737 22.2217 103.189C18.4846 101.641 16.0479 97.9949 16.0479 93.95C16.0479 89.9051 18.4846 86.2586 22.2217 84.7109C25.9588 83.1633 30.2603 84.0194 33.12 86.88C37.0238 90.785 37.0238 97.115 33.12 101.02Z" fill="#FFD80B"/>
<path d="M33.12 101.02C30.2603 103.881 25.9588 104.737 22.2217 103.189C18.4846 101.641 16.0479 97.9949 16.0479 93.95C16.0479 89.9051 18.4846 86.2586 22.2217 84.7109C25.9588 83.1633 30.2603 84.0194 33.12 86.88C37.0238 90.785 37.0238 97.115 33.12 101.02Z" fill="#FFD80B"/>
<path d="M60.0001 118C65.5229 118 70.0001 113.523 70.0001 108C70.0001 102.477 65.5229 98 60.0001 98C54.4773 98 50.0001 102.477 50.0001 108C50.0001 113.523 54.4773 118 60.0001 118Z" fill="#FFD80B"/>
<path d="M60.0001 118C65.5229 118 70.0001 113.523 70.0001 108C70.0001 102.477 65.5229 98 60.0001 98C54.4773 98 50.0001 102.477 50.0001 108C50.0001 113.523 54.4773 118 60.0001 118Z" fill="#FFD80B"/>
<path d="M101.02 101.02C98.1604 103.881 93.859 104.737 90.1219 103.189C86.3847 101.641 83.948 97.9949 83.948 93.95C83.948 89.9051 86.3847 86.2586 90.1219 84.7109C93.859 83.1633 98.1604 84.0194 101.02 86.88C104.924 90.785 104.924 97.115 101.02 101.02Z" fill="#FFD80B"/>
<path d="M101.02 101.02C98.1604 103.881 93.859 104.737 90.1219 103.189C86.3847 101.641 83.948 97.9949 83.948 93.95C83.948 89.9051 86.3847 86.2586 90.1219 84.7109C93.859 83.1633 98.1604 84.0194 101.02 86.88C104.924 90.785 104.924 97.115 101.02 101.02Z" fill="#FFD80B"/>
<path d="M110 70C115.523 70 120 65.5228 120 60C120 54.4771 115.523 50 110 50C104.477 50 100 54.4771 100 60C100 65.5228 104.477 70 110 70Z" fill="#FFD80B"/>
<path d="M110 70C115.523 70 120 65.5228 120 60C120 54.4771 115.523 50 110 50C104.477 50 100 54.4771 100 60C100 65.5228 104.477 70 110 70Z" fill="#FFD80B"/>
<path d="M101.02 33.12C98.1604 35.9806 93.859 36.8367 90.1219 35.2891C86.3847 33.7414 83.948 30.0949 83.948 26.05C83.948 22.0051 86.3847 18.3585 90.1219 16.8109C93.859 15.2633 98.1604 16.1194 101.02 18.98C102.902 20.8513 103.96 23.3959 103.96 26.05C103.96 28.7041 102.902 31.2486 101.02 33.12Z" fill="#FFD80B"/>
<path d="M101.02 33.12C98.1604 35.9806 93.859 36.8367 90.1219 35.2891C86.3847 33.7414 83.948 30.0949 83.948 26.05C83.948 22.0051 86.3847 18.3585 90.1219 16.8109C93.859 15.2633 98.1604 16.1194 101.02 18.98C102.902 20.8513 103.96 23.3959 103.96 26.05C103.96 28.7041 102.902 31.2486 101.02 33.12Z" fill="#FFD80B"/>
<path d="M62 25.84V36.34C60.8603 36.1151 59.7016 36.0012 58.54 36C58.3598 35.9967 58.1795 36.0034 58 36.02V25.84C59.3248 26.0534 60.6752 26.0534 62 25.84Z" fill="#FFD80B"/>
<path d="M44.9999 42.16C44.0934 43.1764 43.302 44.2899 42.6399 45.48L34.4399 37.28C35.5153 36.4714 36.4713 35.5153 37.2799 34.44L44.9999 42.16Z" fill="#FFD80B"/>
<path d="M29.6001 58C28.9667 59.2633 28.5155 60.6101 28.2601 62H23.8401C24.0534 60.6752 24.0534 59.3248 23.8401 58H29.6001Z" fill="#FFD80B"/>
<path d="M42.8399 80L37.2799 85.56C36.4713 84.4847 35.5153 83.5287 34.4399 82.72L37.9999 79.16C39.5463 79.7153 41.1769 79.9994 42.8199 80H42.8399Z" fill="#FFD80B"/>
<path d="M62 80V94.16C60.6752 93.9467 59.3248 93.9467 58 94.16V80H62Z" fill="#FFD80B"/>
<path d="M85.56 82.72C84.4847 83.5286 83.5286 84.4847 82.72 85.56L77.08 79.92C78.6403 79.7608 80.1695 79.3769 81.62 78.78L85.56 82.72Z" fill="#FFD80B"/>
<path d="M96 60C95.9928 60.6701 96.0464 61.3395 96.16 62H91.96C91.8815 60.6442 91.6466 59.3019 91.26 58H96.16C96.0464 58.6605 95.9928 59.3299 96 60Z" fill="#FFD80B"/>
<path d="M87.9599 62C87.4156 55.4255 82.0332 50.3011 75.44 50.08C74.3594 50.0779 73.2834 50.2191 72.24 50.5C72.0474 49.8275 71.7999 49.172 71.5 48.54C71.2186 47.887 70.8842 47.2583 70.5 46.66C68.2025 43.005 64.369 40.5915 60.08 40.1C59.5701 40.0262 59.0552 39.9928 58.54 40C58.3591 39.9934 58.178 40.0068 58 40.04C54.0628 40.1761 50.369 41.9793 47.84 45C47.3761 45.5208 46.961 46.0832 46.6 46.68C45.2203 48.7977 44.414 51.2372 44.26 53.76C43.7827 53.6954 43.3017 53.662 42.82 53.66C38.625 53.6917 34.831 56.1586 33.1 59.98C32.7827 60.6253 32.5346 61.3024 32.36 62C31.5731 65.0327 32.0889 68.2562 33.7827 70.8919C35.4766 73.5277 38.1945 75.336 41.28 75.88C41.7894 75.9605 42.3043 76.0006 42.82 76H75.44C75.6202 76.0033 75.8005 75.9966 75.98 75.98C76.8124 75.9545 77.6386 75.8269 78.44 75.6C84.1246 74.0932 88.0617 68.9207 88 63.04C88 62.68 87.9799 62.34 87.9599 62Z" fill="#FFD80B"/>
<path d="M85.56 37.28L76.7 46.14C76.28 46.1 75.86 46.08 75.44 46.08C75.22 46.08 75 46.08 74.78 46.1C74.3687 45.2967 73.8939 44.5276 73.36 43.8L82.72 34.44C83.5286 35.5153 84.4847 36.4714 85.56 37.28Z" fill="#FFD80B"/>
</g>
<defs>
<clipPath id="clip0">
<rect width="120" height="120" fill="white"/>
</clipPath>
</defs>
</svg>
