<svg width="120" height="120" viewBox="0 0 120 120" fill="none" xmlns="http://www.w3.org/2000/svg">
<g clip-path="url(#clip0)">
<path d="M28.6875 44.4956C28.6875 44.0605 28.5146 43.6432 28.207 43.3355C27.8993 43.0278 27.482 42.855 27.0469 42.855C22.2121 42.8617 17.5773 44.7856 14.159 48.2048C10.7407 51.6239 8.81796 56.2592 8.8125 61.094C8.8125 61.3095 8.85494 61.5228 8.93739 61.7219C9.01983 61.9209 9.14068 62.1018 9.29303 62.2541C9.44537 62.4065 9.62624 62.5273 9.82529 62.6098C10.0243 62.6922 10.2377 62.7347 10.4531 62.7347C10.6686 62.7347 10.8819 62.6922 11.081 62.6098C11.28 62.5273 11.4609 62.4065 11.6132 62.2541C11.7656 62.1018 11.8864 61.9209 11.9689 61.7219C12.0513 61.5228 12.0937 61.3095 12.0937 61.094C12.0982 57.129 13.675 53.3276 16.4784 50.5235C19.2818 47.7195 23.0828 46.1417 27.0478 46.1362C27.4828 46.136 27.8998 45.963 28.2073 45.6554C28.5148 45.3477 28.6875 44.9306 28.6875 44.4956V44.4956Z" fill="#FFD80B"/>
<path d="M42.9487 9.4425C40.4245 9.44548 38.0044 10.4496 36.2195 12.2345C34.4346 14.0194 33.4305 16.4395 33.4275 18.9638C33.4275 19.3989 33.6003 19.8162 33.908 20.1239C34.2157 20.4315 34.633 20.6044 35.0681 20.6044C35.5032 20.6044 35.9205 20.4315 36.2282 20.1239C36.5359 19.8162 36.7087 19.3989 36.7087 18.9638C36.7087 17.3087 37.3662 15.7214 38.5365 14.5511C39.7068 13.3808 41.2941 12.7233 42.9492 12.7233C44.6043 12.7233 46.1916 13.3808 47.3619 14.5511C48.5322 15.7214 49.1897 17.3087 49.1897 18.9638C49.1897 19.3989 49.3625 19.8162 49.6702 20.1239C49.9779 20.4315 50.3952 20.6044 50.8303 20.6044C51.2654 20.6044 51.6827 20.4315 51.9904 20.1239C52.2981 19.8162 52.4709 19.3989 52.4709 18.9638C52.468 16.4393 51.4637 14.0191 49.6786 12.2342C47.8935 10.4492 45.4732 9.44523 42.9487 9.4425V9.4425Z" fill="#FFD80B"/>
<path d="M33.6345 33.4275H34.3376C36.4775 33.4297 38.5291 34.2808 40.0422 35.7939C41.5553 37.307 42.4064 39.3586 42.4086 41.4984V46.8019C42.4064 48.9417 41.5553 50.9933 40.0422 52.5064C38.5291 54.0195 36.4775 54.8706 34.3376 54.8728C33.9025 54.8728 33.4852 55.0457 33.1776 55.3533C32.8699 55.661 32.697 56.0783 32.697 56.5134C32.697 56.9485 32.8699 57.3658 33.1776 57.6735C33.4852 57.9812 33.9025 58.1541 34.3376 58.1541C37.3474 58.1506 40.2328 56.9534 42.361 54.8252C44.4892 52.697 45.6864 49.8116 45.6898 46.8019V41.4984C45.6864 38.4887 44.4892 35.6033 42.361 33.4751C40.2328 31.3469 37.3474 30.1497 34.3376 30.1462H33.6345C33.1994 30.1462 32.7821 30.3191 32.4744 30.6268C32.1667 30.9344 31.9939 31.3517 31.9939 31.7869C31.9939 32.222 32.1667 32.6393 32.4744 32.947C32.7821 33.2546 33.1994 33.4275 33.6345 33.4275Z" fill="#FFD80B"/>
<path d="M44.0625 74.6775C44.4976 74.6775 44.9149 74.5046 45.2226 74.197C45.5303 73.8893 45.7031 73.472 45.7031 73.0369C45.7031 72.6017 45.5303 72.1844 45.2226 71.8768C44.9149 71.5691 44.4976 71.3962 44.0625 71.3962H34.6875C32.1709 71.3935 29.7581 70.3926 27.9785 68.613C26.199 66.8335 25.198 64.4207 25.1953 61.9041C25.1953 61.4689 25.0225 61.0516 24.7148 60.744C24.4071 60.4363 23.9898 60.2634 23.5547 60.2634C23.1196 60.2634 22.7023 60.4363 22.3946 60.744C22.0869 61.0516 21.9141 61.4689 21.9141 61.9041C21.918 65.2906 23.2651 68.5372 25.6597 70.9319C28.0543 73.3265 31.301 74.6735 34.6875 74.6775H44.0625Z" fill="#FFD80B"/>
<path d="M50.0391 94.1306C46.9321 94.1271 43.9534 92.8914 41.7565 90.6944C39.5596 88.4975 38.3238 85.5188 38.3203 82.4119C38.3203 81.9767 38.1475 81.5594 37.8398 81.2518C37.5321 80.9441 37.1148 80.7712 36.6797 80.7712C36.2446 80.7712 35.8273 80.9441 35.5196 81.2518C35.2119 81.5594 35.0391 81.9767 35.0391 82.4119C35.0435 86.3887 36.6253 90.2015 39.4374 93.0135C42.2495 95.8256 46.0622 97.4074 50.0391 97.4119C50.4742 97.4119 50.8915 97.239 51.1992 96.9313C51.5068 96.6237 51.6797 96.2064 51.6797 95.7712C51.6797 95.3361 51.5068 94.9188 51.1992 94.6111C50.8915 94.3035 50.4742 94.1306 50.0391 94.1306V94.1306Z" fill="#FFD80B"/>
<path d="M26.7608 90.7154C25.4459 90.517 24.2633 89.8052 23.4724 88.7362C22.6815 87.6671 22.347 86.328 22.5421 85.0125C22.5771 84.7981 22.5692 84.5789 22.5188 84.3675C22.4685 84.1562 22.3766 83.957 22.2486 83.7814C22.1206 83.6058 21.959 83.4574 21.7732 83.3448C21.5874 83.2322 21.3811 83.1577 21.1662 83.1254C20.9514 83.0932 20.7322 83.104 20.5216 83.1571C20.3109 83.2103 20.1129 83.3048 19.939 83.4351C19.7652 83.5654 19.6189 83.7289 19.5088 83.9162C19.3986 84.1034 19.3268 84.3107 19.2974 84.526C18.9743 86.702 19.5275 88.9174 20.8356 90.6861C22.1437 92.4548 24.0999 93.6326 26.2752 93.961C26.3562 93.9728 26.438 93.9787 26.5199 93.9788C26.9341 93.9788 27.3329 93.8221 27.6363 93.5402C27.9398 93.2583 28.1254 92.872 28.1559 92.459C28.1864 92.0459 28.0595 91.6366 27.8008 91.3132C27.542 90.9898 27.1705 90.7762 26.7608 90.7154V90.7154Z" fill="#FFD80B"/>
<path d="M43.3594 108.041C41.4952 108.039 39.7079 107.298 38.3897 105.98C37.0715 104.661 36.3301 102.874 36.3281 101.01C36.3281 100.575 36.1553 100.158 35.8476 99.8499C35.5399 99.5422 35.1226 99.3694 34.6875 99.3694C34.2524 99.3694 33.8351 99.5422 33.5274 99.8499C33.2197 100.158 33.0469 100.575 33.0469 101.01C33.0499 103.744 34.1373 106.365 36.0706 108.299C38.0039 110.232 40.6252 111.32 43.3594 111.323C43.7945 111.323 44.2118 111.15 44.5195 110.842C44.8272 110.534 45 110.117 45 109.682C45 109.247 44.8272 108.829 44.5195 108.522C44.2118 108.214 43.7945 108.041 43.3594 108.041Z" fill="#FFD80B"/>
<path d="M113.496 66.0056C112.341 66.0068 111.208 66.3176 110.214 66.9056L88.9332 45.6244C88.6257 45.3167 88.2086 45.1437 87.7735 45.1435H61.6407V34.9903H107.21C107.609 36.521 108.552 37.8538 109.863 38.7394C111.173 39.6249 112.762 40.0024 114.331 39.8013C115.9 39.6002 117.342 38.8342 118.387 37.6467C119.432 36.4592 120.008 34.9315 120.008 33.3497C120.008 31.7679 119.432 30.2403 118.387 29.0528C117.342 27.8653 115.9 27.0993 114.331 26.8981C112.762 26.697 111.173 27.0745 109.863 27.96C108.552 28.8456 107.609 30.1784 107.21 31.7091H61.6407V24.3656H87.7735C88.2086 24.3654 88.6257 24.1924 88.9332 23.8847L95.9645 16.8535C97.3703 17.5852 98.9947 17.7796 100.533 17.4001C102.072 17.0207 103.42 16.0934 104.325 14.7919C105.229 13.4904 105.628 11.9039 105.447 10.3294C105.266 8.75485 104.518 7.30019 103.342 6.2377C102.166 5.17521 100.643 4.57772 99.0581 4.55708C97.4734 4.53643 95.9354 5.09405 94.7321 6.12555C93.5288 7.15704 92.7427 8.59172 92.5209 10.161C92.299 11.7303 92.6567 13.3267 93.527 14.6513L87.0938 21.0844H61.6407V18.6038C61.6372 13.7741 59.7645 9.13327 56.415 5.65385C53.0655 2.17444 48.4992 0.126557 43.6732 -0.0605936C38.8471 -0.247744 34.136 1.44036 30.5271 4.64994C26.9182 7.85951 24.6916 12.3414 24.3142 17.1563C20.4727 17.7207 16.9623 19.6479 14.4238 22.5858C11.8853 25.5238 10.488 29.2767 10.487 33.1594C10.4852 35.1313 10.8488 37.0865 11.5595 38.926C8.04255 41.3826 5.16042 44.6405 3.15107 48.4308C1.14171 52.221 0.0627686 56.4349 0.00332914 60.7244C-0.0561103 65.0139 0.905657 69.2561 2.80922 73.1006C4.71278 76.9451 7.50353 80.2816 10.951 82.8347C10.4155 85.022 10.3429 87.2972 10.738 89.5142C11.1331 91.7312 11.9871 93.8412 13.2452 95.7089C14.5034 97.5766 16.1379 99.1608 18.044 100.36C19.9502 101.559 22.0859 102.347 24.3142 102.672C24.6917 107.487 26.9183 111.969 30.5274 115.179C34.1365 118.388 38.8479 120.076 43.6741 119.889C48.5003 119.702 53.0666 117.653 56.416 114.174C59.7653 110.694 61.6377 106.053 61.6407 101.223V100.93H79.5938L86.5857 109.816C85.6611 111.109 85.2395 112.694 85.3998 114.276C85.5602 115.857 86.2916 117.326 87.457 118.407C88.6224 119.488 90.1418 120.107 91.7308 120.148C93.3197 120.189 94.8692 119.649 96.089 118.63C97.3087 117.611 98.1152 116.182 98.3572 114.611C98.5992 113.04 98.2603 111.435 97.4038 110.096C96.5473 108.757 95.2321 107.776 93.7044 107.337C92.1768 106.898 90.5415 107.031 89.1048 107.711L81.6798 98.2753C81.5263 98.0802 81.3305 97.9225 81.1072 97.814C80.884 97.7055 80.639 97.6491 80.3907 97.6491H61.6407V87.8053H78.9676C79.3666 89.336 80.3097 90.6688 81.6204 91.5544C82.9312 92.4399 84.5197 92.8174 86.0887 92.6163C87.6577 92.4152 89.0996 91.6492 90.1446 90.4617C91.1896 89.2741 91.766 87.7465 91.766 86.1647C91.766 84.5829 91.1896 83.0553 90.1446 81.8677C89.0996 80.6802 87.6577 79.9142 86.0887 79.7131C84.5197 79.512 82.9312 79.8895 81.6204 80.775C80.3097 81.6606 79.3666 82.9934 78.9676 84.5241H61.6407V74.6803H89.2792C89.6782 76.211 90.6213 77.5438 91.932 78.4294C93.2427 79.3149 94.8313 79.6924 96.4002 79.4913C97.9692 79.2902 99.4112 78.5242 100.456 77.3367C101.501 76.1492 102.078 74.6215 102.078 73.0397C102.078 71.4579 101.501 69.9303 100.456 68.7428C99.4112 67.5552 97.9692 66.7892 96.4002 66.5881C94.8313 66.387 93.2427 66.7645 91.932 67.65C90.6213 68.5356 89.6782 69.8684 89.2792 71.3991H61.6407V61.5553H71.5023C71.9389 63.0759 72.9146 64.3853 74.2469 65.2384C75.5792 66.0916 77.1767 66.43 78.7405 66.1903C80.3043 65.9506 81.7271 65.1493 82.7428 63.9363C83.7584 62.7234 84.2972 61.1818 84.2583 59.6003C84.2195 58.0187 83.6056 56.5055 82.5316 55.3439C81.4576 54.1823 79.9972 53.4518 78.4235 53.2892C76.8498 53.1266 75.2709 53.5431 73.9821 54.4606C72.6933 55.3781 71.783 56.7339 71.4217 58.2741H61.6407V48.4303H87.0938L107.892 69.2278C107.17 70.4643 106.876 71.9048 107.056 73.3255C107.237 74.7461 107.882 76.0674 108.891 77.0838C109.9 78.1002 111.216 78.7548 112.635 78.946C114.055 79.1371 115.497 78.854 116.739 78.1406C117.981 77.4273 118.952 76.3237 119.502 75.0014C120.052 73.6791 120.15 72.2121 119.78 70.8286C119.41 69.4451 118.594 68.2224 117.457 67.3507C116.321 66.4791 114.929 66.0072 113.497 66.0084L113.496 66.0056ZM113.496 30.1266C114.133 30.1264 114.756 30.3153 115.287 30.6693C115.817 31.0234 116.23 31.5267 116.474 32.1156C116.718 32.7046 116.782 33.3526 116.658 33.9779C116.534 34.6032 116.227 35.1776 115.776 35.6285C115.325 36.0793 114.751 36.3864 114.126 36.5108C113.501 36.6353 112.852 36.5715 112.263 36.3276C111.674 36.0837 111.171 35.6705 110.817 35.1405C110.463 34.6104 110.274 33.9872 110.274 33.3497C110.274 32.4953 110.614 31.676 111.218 31.0718C111.822 30.4675 112.641 30.1276 113.496 30.1266V30.1266ZM98.9645 7.86002C99.6018 7.86002 100.225 8.049 100.755 8.40306C101.285 8.75712 101.698 9.26035 101.941 9.84913C102.185 10.4379 102.249 11.0858 102.125 11.7108C102 12.3359 101.694 12.91 101.243 13.3606C100.792 13.8113 100.218 14.1182 99.5931 14.2425C98.968 14.3668 98.3202 14.303 97.7314 14.0591C97.1426 13.8152 96.6394 13.4022 96.2853 12.8724C95.9313 12.3425 95.7423 11.7195 95.7423 11.0822C95.7433 10.2279 96.0831 9.40894 96.6871 8.80488C97.2912 8.20081 98.1102 7.86101 98.9645 7.86002V7.86002ZM95.0973 113.584C95.0973 114.221 94.9083 114.844 94.5542 115.374C94.2002 115.904 93.697 116.317 93.1082 116.561C92.5194 116.805 91.8715 116.868 91.2465 116.744C90.6214 116.62 90.0473 116.313 89.5967 115.862C89.146 115.412 88.8392 114.837 88.7148 114.212C88.5905 113.587 88.6543 112.939 88.8982 112.351C89.1421 111.762 89.5551 111.259 90.0849 110.905C90.6148 110.551 91.2378 110.362 91.8751 110.362C92.7294 110.363 93.5484 110.702 94.1524 111.306C94.7565 111.91 95.0963 112.729 95.0973 113.584V113.584ZM85.2535 82.9397C85.8911 82.9395 86.5144 83.1284 87.0446 83.4825C87.5747 83.8366 87.988 84.34 88.2321 84.929C88.4761 85.5179 88.54 86.1661 88.4157 86.7914C88.2914 87.4167 87.9844 87.9911 87.5336 88.4419C87.0827 88.8927 86.5084 89.1997 85.883 89.3241C85.2577 89.4484 84.6096 89.3845 84.0206 89.1404C83.4316 88.8964 82.9282 88.4831 82.5741 87.9529C82.2201 87.4227 82.0312 86.7994 82.0313 86.1619C82.0323 85.3076 82.3721 84.4886 82.9762 83.8846C83.5803 83.2805 84.3993 82.9407 85.2535 82.9397V82.9397ZM95.566 69.8147C96.2036 69.8145 96.8269 70.0034 97.3571 70.3575C97.8872 70.7116 98.3005 71.215 98.5446 71.804C98.7886 72.3929 98.8525 73.0411 98.7282 73.6664C98.6039 74.2917 98.2969 74.8661 97.8461 75.3169C97.3952 75.7677 96.8209 76.0747 96.1955 76.1991C95.5702 76.3234 94.9221 76.2595 94.3331 76.0154C93.7441 75.7714 93.2407 75.3581 92.8866 74.8279C92.5326 74.2977 92.3437 73.6744 92.3438 73.0369C92.3448 72.1826 92.6846 71.3636 93.2887 70.7596C93.8928 70.1555 94.7118 69.8157 95.566 69.8147V69.8147ZM77.7479 56.5313C78.3854 56.5311 79.0087 56.72 79.5388 57.074C80.069 57.4281 80.4823 57.9314 80.7264 58.5203C80.9704 59.1092 81.0344 59.7573 80.9102 60.3826C80.7859 61.0079 80.479 61.5823 80.0283 62.0332C79.5775 62.484 79.0032 62.7911 78.378 62.9155C77.7527 63.04 77.1046 62.9762 76.5156 62.7323C75.9266 62.4883 75.4232 62.0752 75.069 61.5452C74.7148 61.0151 74.5257 60.3919 74.5257 59.7544C74.5265 58.9 74.8662 58.0807 75.4702 57.4765C76.0743 56.8722 76.8935 56.5323 77.7479 56.5313V56.5313ZM58.3595 101.221C58.3329 105.287 56.7002 109.179 53.817 112.046C50.9339 114.914 47.034 116.526 42.9675 116.531C38.9009 116.536 34.9972 114.933 32.1073 112.072C29.2173 109.211 27.5753 105.324 27.5392 101.258C27.5392 101.231 27.5392 101.203 27.5392 101.182C27.5393 100.761 27.3782 100.357 27.0892 100.052C26.8002 99.7476 26.4052 99.5652 25.9857 99.5428C24.0088 99.4408 22.082 98.8846 20.3548 97.9175C18.6277 96.9504 17.1465 95.5984 16.0264 93.9663C14.9062 92.3342 14.1771 90.4659 13.8958 88.5065C13.6144 86.5471 13.7882 84.5492 14.4038 82.6678C14.5143 82.329 14.5113 81.9635 14.3954 81.6266C14.2796 81.2896 14.0571 80.9996 13.7617 80.8003C10.474 78.5844 7.793 75.5813 5.96268 72.0644C4.13237 68.5475 3.21095 64.6286 3.28233 60.6645C3.3537 56.7005 4.41562 52.8173 6.37136 49.3686C8.3271 45.9199 11.1145 43.0152 14.4798 40.9191C14.8241 40.7043 15.0766 40.3695 15.1884 39.9794C15.3003 39.5892 15.2636 39.1715 15.0854 38.8069C14.1468 36.8941 13.6976 34.7783 13.7782 32.6492C13.8589 30.52 14.4667 28.4442 15.5474 26.6079C16.628 24.7716 18.1475 23.2323 19.9697 22.128C21.7919 21.0238 23.8597 20.3891 25.9876 20.281C26.4071 20.2586 26.8021 20.0762 27.0911 19.7713C27.3801 19.4665 27.5411 19.0623 27.541 18.6422C27.541 18.6216 27.541 18.5944 27.541 18.5672C27.5771 14.5008 29.219 10.6135 32.1089 7.75245C34.9987 4.89141 38.9023 3.28858 42.9689 3.29328C47.0354 3.29798 50.9353 4.90983 53.8185 7.77754C56.7018 10.6453 58.3347 14.5364 58.3613 18.6028L58.3595 101.221ZM113.496 75.7331C112.858 75.7331 112.235 75.5441 111.705 75.1899C111.175 74.8357 110.762 74.3322 110.518 73.7432C110.274 73.1542 110.21 72.5061 110.335 71.8809C110.459 71.2556 110.766 70.6813 111.217 70.2306C111.668 69.7799 112.242 69.473 112.867 69.3487C113.493 69.2244 114.141 69.2884 114.73 69.5325C115.319 69.7766 115.822 70.1899 116.176 70.72C116.53 71.2502 116.719 71.8734 116.719 72.511C116.718 73.3652 116.378 74.1841 115.773 74.788C115.169 75.3919 114.35 75.7315 113.496 75.7322V75.7331Z" fill="#FFD80B"/>
<path d="M108.633 42.3337C107.346 42.3336 106.089 42.7149 105.019 43.4295C103.949 44.1441 103.115 45.1598 102.623 46.3483C102.13 47.5369 102.001 48.8447 102.252 50.1065C102.503 51.3683 103.123 52.5273 104.032 53.4371C104.942 54.3468 106.101 54.9664 107.363 55.2174C108.624 55.4685 109.932 55.3397 111.121 54.8475C112.309 54.3552 113.325 53.5215 114.04 52.4519C114.755 51.3822 115.136 50.1246 115.136 48.8381C115.134 47.1138 114.448 45.4607 113.229 44.2414C112.01 43.022 110.357 42.336 108.633 42.3337V42.3337ZM108.633 52.0603C107.995 52.0605 107.372 51.8716 106.842 51.5175C106.312 51.1634 105.898 50.66 105.654 50.071C105.41 49.4821 105.346 48.8339 105.471 48.2086C105.595 47.5833 105.902 47.0089 106.353 46.5581C106.804 46.1073 107.378 45.8003 108.003 45.6759C108.629 45.5516 109.277 45.6155 109.866 45.8596C110.455 46.1036 110.958 46.5169 111.312 47.0471C111.666 47.5773 111.855 48.2006 111.855 48.8381C111.854 49.6924 111.514 50.5114 110.91 51.1154C110.306 51.7195 109.487 52.0593 108.633 52.0603V52.0603Z" fill="#FFD80B"/>
<path d="M108.633 86.9128C107.346 86.9127 106.089 87.294 105.019 88.0086C103.949 88.7232 103.115 89.7389 102.623 90.9275C102.13 92.116 102.001 93.4238 102.252 94.6856C102.503 95.9474 103.123 97.1064 104.032 98.0162C104.942 98.9259 106.101 99.5455 107.363 99.7965C108.624 100.048 109.932 99.9188 111.121 99.4266C112.309 98.9343 113.325 98.1006 114.04 97.031C114.755 95.9613 115.136 94.7037 115.136 93.4172C115.134 91.6929 114.448 90.0398 113.229 88.8205C112.01 87.6011 110.357 86.9151 108.633 86.9128V86.9128ZM108.633 96.6394C107.995 96.6396 107.372 96.4507 106.842 96.0967C106.312 95.7426 105.898 95.2393 105.654 94.6504C105.41 94.0614 105.346 93.4133 105.471 92.7881C105.595 92.1628 105.902 91.5884 106.352 91.1375C106.803 90.6867 107.377 90.3796 108.003 90.2552C108.628 90.1307 109.276 90.1945 109.865 90.4384C110.454 90.6823 110.957 91.0955 111.312 91.6255C111.666 92.1556 111.855 92.7788 111.855 93.4163C111.854 94.2707 111.515 95.09 110.91 95.6942C110.306 96.2985 109.487 96.6384 108.633 96.6394Z" fill="#FFD80B"/>
</g>
<defs>
<clipPath id="clip0">
<rect width="120" height="120" fill="white"/>
</clipPath>
</defs>
</svg>
