<svg width="40" height="40" viewBox="0 0 45 45" fill="none" xmlns="http://www.w3.org/2000/svg">
<path d="M26.8066 22.5C26.8066 24.8785 24.8785 26.8066 22.5 26.8066C20.1215 26.8066 18.1934 24.8785 18.1934 22.5C18.1934 20.1215 20.1215 18.1934 22.5 18.1934C24.8785 18.1934 26.8066 20.1215 26.8066 22.5Z" fill="#A7147E"/>
<path d="M32.5721 14.8803C32.3651 14.3193 32.0348 13.8115 31.6057 13.3947C31.1889 12.9656 30.6814 12.6353 30.1201 12.4283C29.6649 12.2515 28.981 12.041 27.7213 11.9837C26.3587 11.9215 25.9501 11.9081 22.5004 11.9081C19.0503 11.9081 18.6418 11.9212 17.2795 11.9833C16.0198 12.041 15.3356 12.2515 14.8807 12.4283C14.3194 12.6353 13.8116 12.9656 13.3951 13.3947C12.966 13.8115 12.6357 14.319 12.4283 14.8803C12.2515 15.3355 12.0411 16.0198 11.9837 17.2794C11.9216 18.6417 11.9082 19.0503 11.9082 22.5003C11.9082 25.95 11.9216 26.3586 11.9837 27.7212C12.0411 28.9809 12.2515 29.6648 12.4283 30.12C12.6357 30.6814 12.9656 31.1888 13.3948 31.6056C13.8116 32.0348 14.319 32.365 14.8803 32.5721C15.3356 32.7492 16.0198 32.9597 17.2795 33.017C18.6418 33.0791 19.05 33.0922 22.5001 33.0922C25.9504 33.0922 26.359 33.0791 27.721 33.017C28.9806 32.9597 29.6649 32.7492 30.1201 32.5721C31.2469 32.1374 32.1375 31.2468 32.5721 30.12C32.7489 29.6648 32.9594 28.9809 33.0171 27.7212C33.0792 26.3586 33.0922 25.95 33.0922 22.5003C33.0922 19.0503 33.0792 18.6417 33.0171 17.2794C32.9597 16.0198 32.7493 15.3355 32.5721 14.8803ZM22.5004 29.1344C18.8361 29.1344 15.8657 26.1643 15.8657 22.5C15.8657 18.8357 18.8361 15.8656 22.5004 15.8656C26.1643 15.8656 29.1348 18.8357 29.1348 22.5C29.1348 26.1643 26.1643 29.1344 22.5004 29.1344ZM29.3971 17.1538C28.5408 17.1538 27.8466 16.4596 27.8466 15.6033C27.8466 14.7471 28.5408 14.0529 29.3971 14.0529C30.2533 14.0529 30.9475 14.7471 30.9475 15.6033C30.9472 16.4596 30.2533 17.1538 29.3971 17.1538Z" fill="#A7147E"/>
<path d="M22.5 0C10.0755 0 0 10.0755 0 22.5C0 34.9245 10.0755 45 22.5 45C34.9245 45 45 34.9245 45 22.5C45 10.0755 34.9245 0 22.5 0ZM35.342 27.8267C35.2795 29.202 35.0608 30.141 34.7415 30.9629C34.0703 32.6984 32.6984 34.0703 30.9629 34.7415C30.1413 35.0608 29.202 35.2792 27.827 35.342C26.4492 35.4048 26.0091 35.4199 22.5003 35.4199C18.9912 35.4199 18.5514 35.4048 17.1733 35.342C15.7983 35.2792 14.859 35.0608 14.0374 34.7415C13.175 34.4171 12.3943 33.9086 11.7488 33.2512C11.0917 32.606 10.5833 31.825 10.2588 30.9629C9.93954 30.1413 9.72084 29.202 9.65836 27.827C9.59484 26.4489 9.58008 26.0088 9.58008 22.5C9.58008 18.9912 9.59484 18.5511 9.65801 17.1733C9.7205 15.798 9.93885 14.859 10.2581 14.0371C10.5826 13.175 11.0914 12.394 11.7488 11.7488C12.394 11.0914 13.175 10.5829 14.0371 10.2585C14.859 9.93919 15.798 9.72084 17.1733 9.65801C18.5511 9.59518 18.9912 9.58008 22.5 9.58008C26.0088 9.58008 26.4489 9.59518 27.8267 9.65836C29.202 9.72084 30.141 9.93919 30.9629 10.2581C31.825 10.5826 32.606 11.0914 33.2515 11.7488C33.9086 12.3943 34.4174 13.175 34.7415 14.0371C35.0611 14.859 35.2795 15.798 35.3423 17.1733C35.4052 18.5511 35.4199 18.9912 35.4199 22.5C35.4199 26.0088 35.4052 26.4489 35.342 27.8267Z" fill="#A7147E"/>
</svg>
