<svg width="30" height="30" viewBox="0 0 45 45" fill="none" xmlns="http://www.w3.org/2000/svg">
<g clip-path="url(#clip0)">
<path d="M22.5 44.999C34.9264 44.999 45 34.9254 45 22.499C45 10.0726 34.9264 -0.00100708 22.5 -0.00100708C10.0736 -0.00100708 0 10.0726 0 22.499C0 34.9254 10.0736 44.999 22.5 44.999Z" fill="#007AB9"/>
<path d="M35.9434 24.3101V33.5864H30.5653V24.9318C30.5653 22.7587 29.7888 21.2747 27.8415 21.2747C26.3555 21.2747 25.4727 22.2738 25.0829 23.2412C24.9413 23.5869 24.9048 24.067 24.9048 24.552V33.586H19.5263C19.5263 33.586 19.5985 18.928 19.5263 17.4107H24.9052V19.7028C24.8944 19.7209 24.8791 19.7385 24.8695 19.7558H24.9052V19.7028C25.6199 18.6031 26.8946 17.0308 29.7523 17.0308C33.2907 17.0308 35.9434 19.3427 35.9434 24.3101ZM13.8999 9.61359C12.0601 9.61359 10.8564 10.8213 10.8564 12.4079C10.8564 13.9609 12.0252 15.2035 13.8293 15.2035H13.8642C15.74 15.2035 16.9064 13.9609 16.9064 12.4079C16.8707 10.8213 15.74 9.61359 13.8999 9.61359ZM11.1761 33.5864H16.5526V17.4107H11.1761V33.5864Z" fill="#F1F2F2"/>
</g>
<defs>
<clipPath id="clip0">
<rect width="45" height="45" fill="white"/>
</clipPath>
</defs>
</svg>
