<svg width="50" height="69" viewBox="0 0 50 69" fill="none" xmlns="http://www.w3.org/2000/svg">
<path fill-rule="evenodd" clip-rule="evenodd" d="M25.1348 0C11.3497 0 0.134766 11.2077 0.134766 24.9837C0.134766 42.0803 22.5067 67.1789 23.4597 68.2391C23.6709 68.4739 23.9292 68.6617 24.2177 68.7903C24.5063 68.9189 24.8187 68.9853 25.1346 68.9853C25.4506 68.9853 25.763 68.9189 26.0515 68.7903C26.3401 68.6617 26.5984 68.4739 26.8096 68.2391C27.7628 67.1789 50.1348 42.0797 50.1348 24.9837C50.1348 11.2077 38.9197 0 25.1348 0ZM25.1348 37.5539C22.6474 37.5536 20.2159 36.8162 18.1479 35.4349C16.0798 34.0535 14.468 32.0903 13.5163 29.7934C12.5646 27.4966 12.3157 24.9692 12.8011 22.531C13.2865 20.0927 14.4844 17.8531 16.2433 16.0953C18.0023 14.3375 20.2432 13.1404 22.6828 12.6555C25.1224 12.1706 27.6511 12.4196 29.9491 13.371C32.2472 14.3224 34.2113 15.9335 35.5932 18.0006C36.9751 20.0677 37.7127 22.4979 37.7127 24.984C37.7087 28.3167 36.3823 31.5118 34.0243 33.8683C31.6663 36.2248 28.4693 37.5503 25.1348 37.5539Z" fill="#FF0C0B"/>
</svg>
