<svg width="120" height="120" viewBox="0 0 120 120" fill="none" xmlns="http://www.w3.org/2000/svg">
<path d="M18.3564 14.1613C18.3532 14.1613 18.3495 14.1613 18.3463 14.1613C17.2114 14.1613 16.1439 14.6037 15.3378 15.4078C14.5229 16.2207 14.074 17.3031 14.074 18.4555V82.8456C14.074 85.2068 16.0025 87.1325 18.3734 87.1385C28.3686 87.1624 45.1145 89.2456 56.6669 101.335V33.9489C56.6669 33.1485 56.4624 32.3965 56.0766 31.7743C46.5949 16.5048 28.3742 14.1848 18.3564 14.1613Z" fill="#FF0C0B"/>
<path d="M105.926 82.8456V18.455C105.926 17.3027 105.478 16.2203 104.663 15.4074C103.857 14.6033 102.788 14.1609 101.655 14.1609C101.651 14.1609 101.647 14.1609 101.644 14.1609C91.6266 14.1847 73.4059 16.5047 63.9239 31.7743C63.538 32.3965 63.334 33.1484 63.334 33.9488V101.335C74.8863 89.2452 91.6323 87.1619 101.627 87.1381C103.998 87.132 105.926 85.2064 105.926 82.8456Z" fill="#FF0C0B"/>
<path d="M115.707 29.0106H112.593V82.8455C112.593 88.8743 107.681 93.7902 101.643 93.8052C93.1652 93.8254 79.1861 95.4832 69.2859 104.853C86.4084 100.661 104.459 103.386 114.745 105.73C116.03 106.023 117.357 105.721 118.386 104.901C119.412 104.082 120 102.859 120 101.547V33.304C120 30.9367 118.074 29.0106 115.707 29.0106Z" fill="#FF0C0B"/>
<path d="M7.40689 82.8455V29.0106H4.29335C1.92647 29.0106 0 30.9367 0 33.304V101.545C0 102.859 0.588285 104.081 1.61374 104.899C2.64203 105.719 3.96809 106.023 5.25456 105.729C15.5415 103.385 33.592 100.66 50.7137 104.852C40.8139 95.4824 26.8348 93.825 18.3568 93.8048C12.3192 93.7902 7.40689 88.8743 7.40689 82.8455Z" fill="#FF0C0B"/>
</svg>
