<svg width="120" height="120" viewBox="0 0 120 120" fill="none" xmlns="http://www.w3.org/2000/svg">
<path d="M105 67.5C105 72.2336 101.162 76.0714 96.4286 76.0714C91.6951 76.0714 87.8572 72.2336 87.8572 67.5C87.8572 62.7665 91.6951 58.9286 96.4286 58.9286C101.162 58.9286 105 62.7665 105 67.5Z" fill="#FFD80B"/>
<path d="M32.1429 67.5C32.1429 72.2336 28.305 76.0714 23.5714 76.0714C18.8379 76.0714 15 72.2336 15 67.5C15 62.7665 18.8379 58.9286 23.5714 58.9286C28.305 58.9286 32.1429 62.7665 32.1429 67.5Z" fill="#FFD80B"/>
<path d="M68.5713 58.9286C68.5713 63.6621 64.7334 67.5 59.9999 67.5C55.2664 67.5 51.4285 63.6621 51.4285 58.9286C51.4285 54.1951 55.2664 50.3572 59.9999 50.3572C64.7334 50.3572 68.5713 54.1951 68.5713 58.9286Z" fill="#FFD80B"/>
<path d="M34.3454 116.786C32.9213 114.945 32.147 112.684 32.1429 110.357V88.9286C32.1523 86.7607 32.5279 84.6094 33.253 82.566C32.8847 82.5409 32.5195 82.5001 32.1429 82.5001H15C11.9908 82.4917 9.05064 83.3988 6.56982 85.1012C2.46512 87.8938 0.00523157 92.5353 0 97.5001V106.071C0.00732423 110.252 2.4421 114.048 6.23814 115.798C6.98103 116.15 7.76472 116.409 8.57143 116.571V93.2143H12.8571V116.786H34.3454Z" fill="#FFD80B"/>
<path d="M36.4944 118.929C36.4714 118.912 36.4525 118.89 36.4285 118.873V118.929H36.4944Z" fill="#FFD80B"/>
<path d="M81.8125 81.8848C80.6636 79.7398 79.0157 77.9025 77.0078 76.5276C76.809 76.3801 76.5997 76.2462 76.3821 76.1269C74.03 74.6893 71.3273 73.9286 68.5713 73.9286H51.4285C43.1437 73.9286 36.4285 80.6439 36.4285 88.9286V110.357C36.4285 113.907 39.3069 116.786 42.857 116.786H44.9999V86.7857H49.2856V116.786H70.7142V86.7857H74.9999V116.786H77.1428C80.6929 116.786 83.5713 113.907 83.5713 110.357V88.9286C83.5724 86.4718 82.9676 84.0528 81.8125 81.8848Z" fill="#FFD80B"/>
<path d="M113.436 85.1054C110.954 83.4009 108.011 82.4917 105 82.5001H87.857C87.4825 82.5001 87.1173 82.5409 86.749 82.566C87.473 84.6105 87.8476 86.7607 87.857 88.9286V110.357C87.8529 112.684 87.0786 114.945 85.6545 116.786H107.143V93.2143H111.428V116.571C112.223 116.412 112.994 116.156 113.725 115.809C117.54 114.067 119.99 110.264 120 106.071V97.5001C119.995 92.5374 117.538 87.8991 113.436 85.1054Z" fill="#FFD80B"/>
<path d="M60 28.9285C51.2371 28.9108 43.0705 33.366 38.3422 40.7446C33.6139 48.1222 32.9778 57.403 36.6535 65.3571H48.8828C45.7439 59.9539 46.944 53.0775 51.7267 49.0565C56.5094 45.0366 63.4905 45.0366 68.2732 49.0565C73.0559 53.0775 74.256 59.9539 71.1171 65.3571H83.3569C87.0336 57.4009 86.3964 48.118 81.665 40.7394C76.9346 33.3607 68.765 28.9076 60 28.9285Z" fill="#FFD80B"/>
<path d="M111.428 46.0714H99.8573L99.4408 44.4622C98.495 40.7802 97.0217 37.2541 95.0704 33.9917L94.2124 32.5582L102.428 24.3279C102.829 23.9293 103.054 23.3873 103.054 22.8222C103.054 22.2572 102.829 21.7152 102.428 21.3176L93.3282 12.2147C92.488 11.4132 91.1676 11.4132 90.3274 12.2147L82.0971 20.445L80.6636 19.5881C77.397 17.6346 73.8667 16.1624 70.1806 15.2145L68.5713 14.796V3.21427C68.5713 2.03088 67.6119 1.07141 66.4285 1.07141H53.5713C52.3879 1.07141 51.4285 2.03088 51.4285 3.21427V14.7855L49.8192 15.2019C46.1372 16.1488 42.6101 17.62 39.3466 19.5703L37.9132 20.4283L29.685 12.2147C28.8437 11.4069 27.5159 11.4069 26.6747 12.2147L17.5717 21.3145C17.171 21.7142 16.945 22.2562 16.945 22.8212C16.945 23.3873 17.171 23.9293 17.5717 24.3279L25.8021 32.5582L24.9451 33.9917C22.9927 37.2541 21.5205 40.7802 20.5736 44.4622L20.153 46.0714H8.57132C7.38794 46.0714 6.42847 47.0309 6.42847 48.2143V61.0714C6.42847 62.2548 7.38794 63.2143 8.57132 63.2143H11.4707C12.743 59.594 15.5701 56.7334 19.1757 55.4192C22.7814 54.104 26.7856 54.4733 30.0899 56.4258C30.0554 55.8325 29.9999 55.2445 29.9999 54.6428C29.9999 38.0744 43.4315 24.6428 59.9999 24.6428C76.5683 24.6428 89.9999 38.0744 89.9999 54.6428C89.9999 55.2445 89.9444 55.8325 89.9099 56.4258C93.2142 54.4733 97.2184 54.104 100.824 55.4192C104.43 56.7334 107.257 59.594 108.529 63.2143H111.428C112.612 63.2143 113.571 62.2548 113.571 61.0714V48.2143C113.571 47.0309 112.612 46.0714 111.428 46.0714Z" fill="#FFD80B"/>
</svg>
