<svg width="23" height="22" viewBox="0 0 23 22" fill="none" xmlns="http://www.w3.org/2000/svg">
<path d="M1.17335 0.26882L21.9026 10.4829C22.0156 10.5386 22.1108 10.6249 22.1774 10.7319C22.244 10.8389 22.2792 10.9624 22.2792 11.0884C22.2792 11.2144 22.244 11.3379 22.1774 11.4449C22.1108 11.5519 22.0156 11.6382 21.9026 11.6939L1.172 21.908C1.05586 21.965 0.925775 21.9875 0.797229 21.9727C0.668682 21.9579 0.547095 21.9065 0.446949 21.8245C0.346804 21.7426 0.272319 21.6336 0.232366 21.5105C0.192414 21.3875 0.188678 21.2555 0.221602 21.1304L2.27495 13.3746C2.30824 13.2491 2.37701 13.1359 2.47303 13.0485C2.56905 12.9611 2.68823 12.9032 2.8163 12.8819L12.1057 11.3334C12.161 11.3243 12.2132 11.3014 12.2575 11.267C12.3018 11.2326 12.3369 11.1877 12.3595 11.1363L12.3838 11.0553C12.3964 10.9802 12.3832 10.9031 12.3464 10.8365C12.3097 10.7698 12.2515 10.7175 12.1813 10.6881L12.1057 10.6665L2.765 9.10997C2.63718 9.08836 2.51828 9.03041 2.42252 8.94302C2.32676 8.85564 2.25819 8.74253 2.225 8.61722L0.221602 1.04777C0.188335 0.922543 0.191813 0.790388 0.23162 0.667084C0.271428 0.543781 0.345883 0.43454 0.446095 0.352406C0.546307 0.270272 0.668041 0.218716 0.79676 0.203894C0.92548 0.189072 1.05575 0.211611 1.172 0.26882H1.17335Z" fill="white"/>
</svg>
