<svg width="20" height="20" viewBox="0 0 20 20" fill="none" xmlns="http://www.w3.org/2000/svg">
<path d="M2.28385 2.15754C2.28489 1.31759 2.96594 0.636963 3.80609 0.636963L10.1802 0.636963C10.5839 0.636963 10.9711 0.797294 11.2566 1.08275L19.554 9.37841C20.1486 9.97292 20.1487 10.9369 19.5541 11.5316L13.18 17.9057C12.8828 18.203 12.4931 18.3516 12.1035 18.3516C11.8582 18.3516 11.6156 18.2858 11.3934 18.168C10.5801 17.4983 11.7834 18.662 2.72968 9.61011C2.44408 9.32455 2.28366 8.93728 2.28366 8.53346C2.28366 2.06786 2.28361 3.17234 2.28385 2.15754ZM3.04487 8.53341C3.04487 8.73675 3.12409 8.92796 3.26786 9.07173L11.5653 17.3675C11.7091 17.5113 11.9002 17.5905 12.1036 17.5905C12.3069 17.5905 12.498 17.5113 12.6418 17.3675L19.0158 10.9933C19.1596 10.8496 19.2388 10.6584 19.2388 10.4551C19.2388 10.2517 19.1596 10.0606 19.0158 9.91678L10.7184 1.62108C10.5746 1.47735 10.3835 1.39818 10.1802 1.39818L3.80604 1.39818C3.38633 1.39818 3.04482 1.73968 3.04482 2.1594L3.04482 8.53341H3.04487Z" fill="#014A7F"/>
<path d="M0.761279 2.15942L0.761279 9.2946C0.761279 9.49794 0.840494 9.68915 0.984269 9.83293L9.97754 18.8246L9.43931 19.3629L0.446087 10.3713C0.160488 10.0857 6.10352e-05 9.69843 6.10352e-05 9.2946L6.10352e-05 2.15942L0.761279 2.15942Z" fill="#014A7F"/>
<path d="M6.47024 3.30127C7.30953 3.30127 7.99268 3.98403 7.99268 4.82371C7.99268 5.66338 7.30953 6.34614 6.47024 6.34614C5.63095 6.34614 4.9478 5.66338 4.9478 4.82371C4.9478 3.98403 5.631 3.30127 6.47024 3.30127ZM6.47024 5.58492C6.89024 5.58492 7.23146 5.24333 7.23146 4.82371C7.23146 4.40408 6.89024 4.06249 6.47024 4.06249C6.05024 4.06249 5.70902 4.40408 5.70902 4.82371C5.70902 5.24333 6.05024 5.58492 6.47024 5.58492Z" fill="#014A7F"/>
</svg>
