<svg width="30" height="30" viewBox="0 0 30 30" fill="none" xmlns="http://www.w3.org/2000/svg">
<g clip-path="url(#clip0)">
<path d="M15 15.0387C7.0942 15.0387 0.662109 21.4708 0.662109 29.3766C0.662109 29.7207 0.941407 30 1.28552 30C1.62963 30 1.90893 29.7207 1.90893 29.3766C1.90893 22.1578 7.78125 16.2854 15.0001 16.2854C22.2189 16.2854 28.0913 22.1578 28.0913 29.3766C28.0913 29.7207 28.3706 30 28.7147 30C29.0588 30 29.3381 29.7207 29.3381 29.3766C29.338 21.4695 22.9059 15.0387 15 15.0387Z" fill="#FF0C0B"/>
<path d="M14.9998 0C11.2196 0 8.14258 3.07578 8.14258 6.85726C8.14258 10.6387 11.2196 13.7145 14.9998 13.7145C18.78 13.7145 21.8571 10.6387 21.8571 6.85726C21.8571 3.07578 18.7801 0 14.9998 0ZM14.9998 12.4678C11.9066 12.4678 9.38934 9.95052 9.38934 6.85726C9.38934 3.76401 11.9066 1.24676 14.9998 1.24676C18.0931 1.24676 20.6103 3.76401 20.6103 6.85726C20.6103 9.95052 18.0931 12.4678 14.9998 12.4678Z" fill="#FF0C0B"/>
</g>
<defs>
<clipPath id="clip0">
<rect width="30" height="30" fill="white"/>
</clipPath>
</defs>
</svg>
